{
  "images": [
    {"uri": "data:image/png;base64,"},
    {"uri": "data:image/png;base64,"},
    {"uri": "data:image/png;base64,"},
    {"uri": "data:image/png;base64,"}
  ],
  "accessors": [
    {
      "componentType": 5126,
      "min": [
        -22,
        -24,
        -22
      ],
      "byteOffset": 0,
      "bufferView": 0,
      "max": [
        22,
        24,
        22
      ],
      "count": 7164,
      "type": "VEC3"
    },
    {
      "componentType": 5126,
      "byteOffset": 0,
      "bufferView": 1,
      "count": 7164,
      "type": "VEC3"
    },
    {
      "componentType": 5126,
      "byteOffset": 0,
      "bufferView": 2,
      "count": 7164,
      "type": "VEC2"
    },
    {
      "componentType": 5126,
      "byteOffset": 0,
      "bufferView": 2,
      "count": 7164,
      "type": "VEC2"
    },
    {
      "componentType": 5126,
      "min": [
        -11.999999046325684,
        -11.999999046325684,
        -26.999998092651367
      ],
      "byteOffset": 0,
      "bufferView": 3,
      "max": [
        11.999999046325684,
        11.999999046325684,
        18.000003814697266
      ],
      "count": 2706,
      "type": "VEC3"
    },
    {
      "componentType": 5126,
      "byteOffset": 0,
      "bufferView": 4,
      "count": 2706,
      "type": "VEC3"
    },
    {
      "componentType": 5126,
      "byteOffset": 0,
      "bufferView": 5,
      "count": 2706,
      "type": "VEC2"
    },
    {
      "componentType": 5126,
      "byteOffset": 0,
      "bufferView": 5,
      "count": 2706,
      "type": "VEC2"
    }
  ],
  "textures": [
    {
      "source": 0,
      "sampler": 0
    },
    {
      "source": 1,
      "sampler": 0
    },
    {
      "source": 2,
      "sampler": 0
    },
    {
      "source": 3,
      "sampler": 0
    }
  ],
  "buffers": [
    {
      "byteLength": 85968,
      "uri": "data:application/octet-stream;base64,"
    },
    {
      "byteLength": 85968,
      "uri": "data:application/octet-stream;base64,"
    },
    {
      "byteLength": 57312,
      "uri": "data:application/octet-stream;base64,"
    },
    {
      "byteLength": 32472,
      "uri": "data:application/octet-stream;base64,"
    },
    {
      "byteLength": 32472,
      "uri": "data:application/octet-stream;base64,"
    },
    {
      "byteLength": 21648,
      "uri": "data:application/octet-stream;base64,"
    }
  ],
  "bufferViews": [
    {
      "byteOffset": 0,
      "byteLength": 85968,
      "buffer": 0,
      "byteStride": 12,
      "target": 34962
    },
    {
      "byteOffset": 0,
      "byteLength": 85968,
      "buffer": 1,
      "byteStride": 12,
      "target": 34962
    },
    {
      "byteOffset": 0,
      "byteLength": 57312,
      "buffer": 2,
      "byteStride": 8,
      "target": 34962
    },
    {
      "byteOffset": 0,
      "byteLength": 32472,
      "buffer": 3,
      "byteStride": 12,
      "target": 34962
    },
    {
      "byteOffset": 0,
      "byteLength": 32472,
      "buffer": 4,
      "byteStride": 12,
      "target": 34962
    },
    {
      "byteOffset": 0,
      "byteLength": 21648,
      "buffer": 5,
      "byteStride": 8,
      "target": 34962
    }
  ],
  "samplers": [{
    "minFilter": 9728,
    "wrapT": 33071,
    "wrapS": 33071,
    "magFilter": 9728
  }],
  "scene": 0,
  "nodes": [
    {
      "children": [
        1,
        2
      ],
      "rotation": [
        0,
        -1,
        0,
        -4.371138828673793E-8
      ],
      "translation": [
        0,
        0,
        0
      ],
      "name": "Root-Global",
      "scale": [
        -1,
        1,
        1
      ]
    },
    {
      "rotation": [
        0,
        0,
        0,
        1
      ],
      "translation": [
        0,
        0,
        0
      ],
      "name": "Root-Local",
      "scale": [
        1,
        1,
        1
      ]
    },
    {
      "children": [
        3,
        4
      ],
      "rotation": [
        0,
        0,
        0,
        1
      ],
      "translation": [
        0,
        0,
        0
      ],
      "name": "body-Global",
      "scale": [
        1,
        1,
        1
      ]
    },
    {
      "rotation": [
        0,
        0,
        0,
        1
      ],
      "translation": [
        0,
        24,
        0
      ],
      "name": "body-Local",
      "scale": [
        1,
        1,
        1
      ],
      "mesh": 0
    },
    {
      "children": [5],
      "rotation": [
        -2.088160254061222E-4,
        0.05050860345363617,
        1.0556392226135358E-5,
        0.9987236261367798
      ],
      "translation": [
        0,
        47.37828063964844,
        0
      ],
      "name": "head-Global",
      "scale": [
        1,
        1,
        1
      ]
    },
    {
      "rotation": [
        0,
        0,
        0,
        1
      ],
      "translation": [
        0,
        -2.1508684158325195,
        4.194107532501221
      ],
      "name": "head-Local",
      "scale": [
        1,
        1,
        1
      ],
      "mesh": 1
    }
  ],
  "materials": [
    {
      "name": "head-Material",
      "emissiveTexture": {
        "index": 1,
        "texCoord": 1
      },
      "pbrMetallicRoughness": {
        "baseColorTexture": {"index": 0},
        "metallicFactor": 0,
        "roughnessFactor": 1
      },
      "emissiveFactor": [
        1,
        1,
        1
      ]
    },
    {
      "name": "ROBOT-Material",
      "emissiveTexture": {
        "index": 3,
        "texCoord": 1
      },
      "pbrMetallicRoughness": {
        "baseColorTexture": {"index": 2},
        "metallicFactor": 0,
        "roughnessFactor": 1
      },
      "emissiveFactor": [
        1,
        1,
        1
      ]
    }
  ],
  "animations": [],
  "scenes": [{"nodes": [0]}],
  "asset": {
    "generator": "VoxEdit Beta e2de1723",
    "version": "2.0"
  },
  "meshes": [
    {
      "primitives": [{
        "mode": 4,
        "material": 0,
        "attributes": {
          "POSITION": 0,
          "TEXCOORD_1": 3,
          "TEXCOORD_0": 2,
          "NORMAL": 1
        }
      }],
      "name": "head-Mesh"
    },
    {
      "primitives": [{
        "mode": 4,
        "material": 1,
        "attributes": {
          "POSITION": 4,
          "TEXCOORD_1": 7,
          "TEXCOORD_0": 6,
          "NORMAL": 5
        }
      }],
      "name": "ROBOT-Mesh"
    }
  ]
}